<?xml version="1.0" encoding="UTF-8" standalone="no"?>
<svg width="512px" height="512px" viewBox="0 0 512 512" version="1.1" xmlns="http://www.w3.org/2000/svg" xmlns:xlink="http://www.w3.org/1999/xlink">
    <!-- Generator: Sketch 41.2 (35397) - http://www.bohemiancoding.com/sketch -->
    <title>Android</title>
    <desc>Created with Sketch.</desc>
    <defs></defs>
    <g id="Page-1" stroke="none" stroke-width="1" fill="none" fill-rule="evenodd">
        <g id="Android" transform="translate(5.000000, 5.000000)">
            <circle id="Oval" stroke="#7C858A" stroke-width="10" fill="#FFFFFF" cx="251" cy="251" r="251"></circle>
            <g id="android" transform="translate(126.000000, 103.000000)" fill="#98A9B3">
                <path d="M87.5355114,63.1095157 C91.4417614,63.1095157 94.4602273,59.9095965 94.4602273,56.1763576 C94.4602273,52.4431186 91.4417614,49.2431995 87.5355114,49.2431995 C83.8068182,49.2431995 80.7883523,52.4431186 80.7883523,56.1763576 C80.7883523,59.9095965 83.8068182,63.1095157 87.5355114,63.1095157 Z M162.464489,63.1095157 C166.193182,63.1095157 169.211648,59.9095965 169.211648,56.1763576 C169.211648,52.4431186 166.193182,49.2431995 162.464489,49.2431995 C158.558239,49.2431995 155.539773,52.4431186 155.539773,56.1763576 C155.539773,59.9095965 158.558239,63.1095157 162.464489,63.1095157 Z M18.2883523,95.8197998 C28.2315341,95.8197998 36.3991477,103.997371 36.3991477,113.952675 L36.3991477,190.395187 C36.3991477,200.528264 28.4090909,208.705835 18.2883523,208.705835 C8.16761364,208.705835 0,200.528264 0,190.395187 L0,113.952675 C0,103.997371 8.16761364,95.8197998 18.2883523,95.8197998 Z M206.49858,99.1974922 L206.49858,217.594499 C206.49858,228.438669 197.798295,237.14956 187.144886,237.14956 L173.828125,237.14956 L173.828125,277.504096 C173.828125,287.637173 165.660511,295.814744 155.539773,295.814744 C145.419034,295.814744 137.25142,287.637173 137.25142,277.504096 L137.25142,237.14956 L112.74858,237.14956 L112.74858,277.504096 C112.74858,287.637173 104.580966,295.814744 94.4602273,295.814744 C84.5170455,295.814744 76.3494318,287.637173 76.3494318,277.504096 L76.171875,237.14956 L63.0326705,237.14956 C52.2017045,237.14956 43.5014205,228.438669 43.5014205,217.594499 L43.5014205,99.1974922 L206.49858,99.1974922 Z M165.305398,27.1993124 C190.163352,39.9989888 207.03125,64.5317019 207.03125,92.797654 L42.7911932,92.797654 C42.7911932,64.5317019 59.6590909,39.9989888 84.6946023,27.1993124 L72.0880682,3.91101224 C71.3778409,2.66659925 71.7329545,1.0666397 72.9758523,0.355546567 C74.21875,-0.177773284 75.8167614,0.177773284 76.5269886,1.42218627 L89.3110795,24.8882597 C100.142045,20.088381 112.215909,17.4217818 125,17.4217818 C137.784091,17.4217818 149.857955,20.088381 160.68892,24.8882597 L173.473011,1.42218627 C174.183239,0.177773284 175.78125,-0.177773284 177.024148,0.355546567 C178.267045,1.0666397 178.622159,2.66659925 177.911932,3.91101224 L165.305398,27.1993124 Z M250,113.952675 L250,190.395187 C250,200.528264 241.832386,208.705835 231.711648,208.705835 C221.768466,208.705835 213.600852,200.528264 213.600852,190.395187 L213.600852,113.952675 C213.600852,103.819598 221.768466,95.8197998 231.711648,95.8197998 C241.832386,95.8197998 250,103.819598 250,113.952675 Z" id="Shape"></path>
            </g>
        </g>
    </g>
</svg>