<?xml version="1.0" encoding="UTF-8" standalone="no"?>
<svg width="512px" height="512px" viewBox="0 0 512 512" version="1.1" xmlns="http://www.w3.org/2000/svg" xmlns:xlink="http://www.w3.org/1999/xlink">
    <!-- Generator: Sketch 41.2 (35397) - http://www.bohemiancoding.com/sketch -->
    <title>iOS</title>
    <desc>Created with Sketch.</desc>
    <defs></defs>
    <g id="Page-1" stroke="none" stroke-width="1" fill="none" fill-rule="evenodd">
        <g id="iOS" transform="translate(5.000000, 5.000000)">
            <circle id="Oval" stroke="#7C858A" stroke-width="10" fill="#FFFFFF" cx="251" cy="251" r="251"></circle>
            <path d="M211.927273,332 L208.981818,332 C204.563636,332 201.618182,330.527273 198.672727,330.527273 C185.418182,327.581818 175.109091,321.690909 166.272727,312.854545 C157.436364,302.545455 150.072727,290.763636 147.127273,277.509091 C145.654545,273.090909 145.654545,267.2 144.181818,262.781818 L144.181818,245.109091 C144.181818,234.8 147.127273,225.963636 150.072727,215.654545 C155.963636,202.4 163.327273,192.090909 175.109091,183.254545 C182.472727,177.363636 191.309091,174.418182 200.145455,171.472727 C207.509091,170 213.4,170 220.763636,170 C228.127273,170 234.018182,171.472727 241.381818,172.945455 C253.163636,175.890909 263.472727,183.254545 270.836364,192.090909 C279.672727,202.4 284.090909,212.709091 287.036364,225.963636 C288.509091,230.381818 288.509091,236.272727 288.509091,240.690909 L288.509091,255.418182 C288.509091,264.254545 287.036364,273.090909 284.090909,281.927273 C281.145455,290.763636 276.727273,299.6 270.836364,306.963636 C260.527273,318.745455 248.745455,326.109091 234.018182,329.054545 C232.545455,330.527273 228.127273,332 223.709091,332 L211.927273,332 L211.927273,332 Z M260.527273,251 L260.527273,243.636364 C260.527273,239.218182 259.054545,233.327273 257.581818,228.909091 C256.109091,221.545455 251.690909,214.181818 247.272727,206.818182 C242.854545,200.927273 238.436364,197.981818 232.545455,195.036364 C228.127273,193.563636 225.181818,192.090909 220.763636,192.090909 C216.345455,192.090909 213.4,192.090909 208.981818,193.563636 C200.145455,195.036364 194.254545,199.454545 188.363636,205.345455 C183.945455,209.763636 181,215.654545 178.054545,223.018182 C175.109091,230.381818 173.636364,237.745455 173.636364,246.581818 L173.636364,261.309091 C173.636364,261.309091 175.109091,270.145455 176.581818,274.563636 C179.527273,281.927273 182.472727,287.818182 186.890909,293.709091 C192.781818,301.072727 201.618182,305.490909 211.927273,306.963636 L220.763636,306.963636 C220.763636,306.963636 226.654545,305.490909 229.6,304.018182 C235.490909,301.072727 241.381818,296.654545 245.8,292.236364 C250.218182,286.345455 254.636364,278.981818 256.109091,271.618182 C260.527273,265.727273 260.527273,258.363636 260.527273,251 L260.527273,251 Z M344.472727,327.581818 L341.527273,327.581818 C338.581818,327.581818 334.163636,327.581818 331.218182,326.109091 C326.8,324.636364 320.909091,324.636364 316.490909,323.163636 C313.545455,321.690909 309.127273,320.218182 306.181818,318.745455 L304.709091,318.745455 C306.181818,311.381818 309.127273,304.018182 310.6,295.181818 C317.963636,299.6 323.854545,301.072727 331.218182,302.545455 C334.163636,302.545455 337.109091,304.018182 340.054545,304.018182 L347.418182,304.018182 C351.836364,304.018182 356.254545,304.018182 360.672727,302.545455 C365.090909,301.072727 368.036364,299.6 370.981818,296.654545 C373.927273,293.709091 375.4,290.763636 375.4,286.345455 C375.4,283.4 375.4,280.454545 373.927273,277.509091 C372.454545,273.090909 369.509091,270.145455 366.563636,268.672727 C363.618182,265.727273 360.672727,264.254545 356.254545,262.781818 L343,258.363636 C337.109091,255.418182 329.745455,252.472727 323.854545,249.527273 C319.436364,246.581818 315.018182,243.636364 310.6,239.218182 C306.181818,233.327273 303.236364,227.436364 301.763636,221.545455 L301.763636,211.236364 C303.236364,203.872727 304.709091,197.981818 309.127273,192.090909 C313.545455,186.2 317.963636,181.781818 325.327273,178.836364 C331.218182,175.890909 335.636364,174.418182 341.527273,172.945455 C347.418182,171.472727 354.781818,171.472727 360.672727,171.472727 C368.036364,171.472727 375.4,172.945455 382.763636,174.418182 C387.181818,175.890909 390.127273,177.363636 394.545455,178.836364 L396.018182,178.836364 C393.072727,186.2 391.6,193.563636 388.654545,200.927273 C382.763636,197.981818 376.872727,196.509091 370.981818,195.036364 C368.036364,195.036364 365.090909,193.563636 360.672727,193.563636 L353.309091,193.563636 C348.890909,193.563636 344.472727,195.036364 341.527273,196.509091 C337.109091,197.981818 334.163636,202.4 332.690909,206.818182 C329.745455,212.709091 331.218182,220.072727 338.581818,225.963636 C341.527273,227.436364 344.472727,230.381818 347.418182,231.854545 C353.309091,234.8 357.727273,236.272727 363.618182,237.745455 C370.981818,240.690909 376.872727,243.636364 382.763636,246.581818 C387.181818,249.527273 391.6,252.472727 394.545455,256.890909 C398.963636,261.309091 400.436364,267.2 401.909091,273.090909 L401.909091,289.290909 C400.436364,295.181818 398.963636,299.6 396.018182,305.490909 C390.127273,312.854545 382.763636,318.745455 373.927273,323.163636 C369.509091,324.636364 365.090909,326.109091 360.672727,326.109091 C357.727273,326.109091 353.309091,327.581818 350.363636,327.581818 L347.418182,327.581818 L344.472727,327.581818 L344.472727,327.581818 Z M116.2,170 L117.672727,170 C123.563636,171.472727 127.981818,175.890909 129.454545,180.309091 L129.454545,189.145455 C127.981818,193.563636 123.563636,196.509091 119.145455,197.981818 L110.309091,197.981818 C105.890909,196.509091 102.945455,192.090909 101.472727,187.672727 L101.472727,186.2 L101.472727,183.254545 C102.945455,177.363636 107.363636,172.945455 113.254545,171.472727 L114.727273,171.472727 C114.727273,170 114.727273,170 116.2,170 L116.2,170 Z M129.454545,214.181818 L129.454545,332 L100,332 L100,214.181818 L129.454545,214.181818 Z" id="Shape" fill="#98A9B3"></path>
        </g>
    </g>
</svg>