<?xml version="1.0" encoding="UTF-8" standalone="no"?>
<svg width="512px" height="512px" viewBox="0 0 512 512" version="1.1" xmlns="http://www.w3.org/2000/svg" xmlns:xlink="http://www.w3.org/1999/xlink">
    <!-- Generator: Sketch 41.2 (35397) - http://www.bohemiancoding.com/sketch -->
    <title>OS X</title>
    <desc>Created with Sketch.</desc>
    <defs></defs>
    <g id="Page-1" stroke="none" stroke-width="1" fill="none" fill-rule="evenodd">
        <g id="OS-X" transform="translate(5.000000, 5.000000)">
            <g id="Android" stroke="#7C858A" stroke-width="10" fill="#FFFFFF">
                <circle id="Oval" cx="251" cy="251" r="251"></circle>
            </g>
            <g id="1486419012_finder-social-network-brand-logo" transform="translate(115.000000, 103.000000)" fill="#98A9B3">
                <g id="finder">
                    <g id="Group">
                        <path d="M267.647059,32.092328 L165.730137,32.092328 C175.594001,17.7260893 183.108996,9.14763382 183.325254,8.90322271 C185.288178,6.69389606 185.086907,3.31439108 182.878284,1.35589334 C180.667118,-0.612765918 177.28446,-0.414349024 175.321537,1.79979097 C174.301266,2.94590257 164.510201,14.1016383 152.647013,32.092328 L5.35294118,32.092328 C2.39691324,32.092328 0,34.4845619 0,37.4404923 L0,256.715226 C0,259.671156 2.39691324,262.06339 5.35294118,262.06339 L156.334119,262.06339 C159.424907,272.446316 163.600201,283.144249 169.221325,293.943262 C170.175353,295.776613 172.041254,296.826458 173.975941,296.826458 C174.807119,296.826458 175.651412,296.633389 176.440301,296.225859 C179.062172,294.862612 180.084049,291.629647 178.719584,289.013325 C173.996149,279.938025 170.379166,270.901766 167.596707,262.06339 L267.647059,262.06339 C270.602819,262.06339 273,259.671156 273,256.715226 L273,37.4404923 C273,34.4845619 270.602819,32.092328 267.647059,32.092328 Z M10.7058824,251.367062 L10.7058824,42.7886565 L145.883037,42.7886565 C128.076478,72.1099669 108.544666,114.337467 107.061366,160.276059 C107.01426,161.722737 107.558119,163.1277 108.566613,164.166848 C109.572966,165.211345 110.961118,165.796434 112.411765,165.796434 L153.617501,165.796434 C151.779837,173.297234 149.299284,186.352103 148.778978,202.809474 C143.873007,203.082765 138.879784,203.233584 133.823529,203.233584 C96.2901779,203.233584 61.6529015,195.394244 45.5806956,183.266747 C43.2179074,181.48046 39.8675015,181.950564 38.0844368,184.311244 C36.3019074,186.666575 36.7697544,190.019874 39.1304015,191.800813 C57.2147779,205.453072 93.4986191,213.929912 133.823529,213.929912 C138.87229,213.929912 143.853201,213.795673 148.741507,213.538426 C149.019325,225.069069 150.372549,237.843159 153.514725,251.367062 L10.7058824,251.367062 Z M262.294118,251.367062 L164.606554,251.367062 C161.231525,237.54794 159.838824,224.437985 159.597272,212.723901 C189.601176,209.913976 215.061237,202.270914 229.086478,191.367077 C231.417684,189.555119 231.838425,186.197006 230.022172,183.861998 C228.20806,181.532872 224.841596,181.104484 222.51039,182.927139 C210.342084,192.387507 187.017713,199.263107 159.671678,201.96286 C160.546884,178.244821 165.63646,162.451692 165.739772,162.140429 C166.280954,160.510843 166.006349,158.714395 164.999996,157.319594 C163.993643,155.930675 162.381471,155.100105 160.661437,155.100105 L118.033825,155.100105 C120.961349,110.987377 141.427249,70.0594808 158.679243,42.7886565 L262.294118,42.7886565 L262.294118,251.367062 Z" id="Shape"></path>
                        <rect id="Rectangle-path" x="182" y="74.8776419" width="10.7058824" height="37.9644787"></rect>
                        <rect id="Rectangle-path" x="69.5882353" y="74.8776419" width="10.7058824" height="37.9644787"></rect>
                    </g>
                </g>
            </g>
        </g>
    </g>
</svg>