<svg xmlns="http://www.w3.org/2000/svg" viewBox="0 0 470.3 253.9" enable-background="new 0 0 470.3 253.9"><style>.st0{display:none}.st1,.st2{display:inline;fill:#fff;stroke:#fff;stroke-miterlimit:10}.st2{fill:none;stroke-linecap:round}.st2,.st3{stroke-width:3}.st3,.st4,.st5{display:inline;fill:none;stroke:#fff;stroke-miterlimit:10}.st4{stroke-linejoin:round;stroke-width:3}.st5{stroke-width:2.2422}.st6{filter:url(#Adobe_OpacityMaskFilter)}.st7,.st8{fill:#fff;stroke:#fff;stroke-miterlimit:10}.st8{fill:none;stroke-linecap:round}.st8,.st9{stroke-width:3}.st10,.st11,.st9{fill:none;stroke:#fff;stroke-miterlimit:10}.st10{stroke-linejoin:round;stroke-width:3}.st11{stroke-width:2.2422}.st12{mask:url(#SVGID_1_);fill:url(#SVGID_2_)}</style><g id="Layer_1" class="st0"><circle class="st1" cx="136.8" cy="241.3" r="4.5"/><path class="st2" d="M103.6 218.4v23.5c0 5 4.1 9.2 9.2 9.2h47.7c5 0 9.2-4.1 9.2-9.2V138.8c0-5-4.1-9.2-9.2-9.2h-47.7c-5 0-9.2 4.1-9.2 9.2v79.6z"/><path class="st3" d="M103.6 145.9h65.2"/><path class="st2" d="M133.3 138.5h13.4"/><path class="st3" d="M103.6 231.8h65.2"/><circle class="st1" cx="126.5" cy="138.3" r="1.5"/><path class="st2" d="M398.2 102.6V72c0-3.8-3.1-6.9-6.9-6.9H162c-3.8 0-6.9 3.1-6.9 6.9v39c.1 2 .1 6.8.2 10.2M177.3 222.9h220.9V172"/><path class="st2" d="M174.3 251.1h244.5c3.8 0 6.9-3.1 6.9-6.9v-4.1c0-1.3-.4-2.7-1.3-3.7l-26.2-13.6M425.7 237.5H177.3M343.7 153.6H384M343.7 144.7h10.8M361.3 144.7h10.8M379.3 144.7h4.7"/><path class="st3" d="M408.5 162.8h-68.4c-2.8 0-5-2.2-5-5v-41.9c0-2.8 2.2-5 5-5h68.4c2.8 0 5 2.2 5 5v41.9c0 2.7-2.3 5-5 5z"/><path class="st1" d="M355.3 137.6h-11.4c-1 0-1.8-.8-1.8-1.8v-9.3c0-1 .8-1.8 1.8-1.8h11.4c1 0 1.8.8 1.8 1.8v9.3c0 1-.8 1.8-1.8 1.8z"/><path class="st3" d="M72 214.8H10.7c-5.1 0-9.2-4.1-9.2-9.2V83.4c0-5.1 4.1-9.2 9.2-9.2H72c5.1 0 9.2 4.1 9.2 9.2v122.2c0 5.1-4.1 9.2-9.2 9.2z"/><path class="st2" d="M89.1 128.4v79.8"/><path class="st4" d="M16.5 92.5h50.9v25.4H16.5z"/><circle class="st1" cx="41.4" cy="195.1" r="5.3"/><circle class="st1" cx="61" cy="195.1" r="5.3"/><circle class="st1" cx="21.8" cy="195.1" r="5.3"/><circle class="st1" cx="41.4" cy="172.5" r="5.3"/><circle class="st1" cx="61" cy="172.5" r="5.3"/><circle class="st1" cx="21.8" cy="172.5" r="5.3"/><circle class="st1" cx="41.4" cy="149.8" r="5.3"/><circle class="st1" cx="61" cy="149.8" r="5.3"/><circle class="st1" cx="21.8" cy="149.8" r="5.3"/><circle class="st1" cx="425.7" cy="137.6" r="4.1"/><circle class="st1" cx="445.7" cy="137.6" r="4.1"/><circle class="st1" cx="465.7" cy="137.6" r="4.1"/><circle class="st3" cx="118.6" cy="48.7" r="22.6"/><circle class="st5" cx="80.1" cy="12.1" r="11"/><path class="st2" d="M22.6 215.2v13.2M32.5 223.2v5.2"/><path class="st3" d="M70.3 215v31.4c0 2.8-2.2 5-5 5H17.4c-2.8 0-5-2.2-5-5v-31.6"/></g><g id="Layer_2"><defs><filter id="Adobe_OpacityMaskFilter" filterUnits="userSpaceOnUse" x="0" y="0" width="470.3" height="253.9"><feColorMatrix values="1 0 0 0 0 0 1 0 0 0 0 0 1 0 0 0 0 0 1 0"/></filter></defs><mask maskUnits="userSpaceOnUse" x="0" y="0" width="470.3" height="253.9" id="SVGID_1_"><g class="st6"><ellipse class="st7" cx="137.1" cy="242.2" rx="4.5" ry="4.5"/><path class="st8" d="M104 219.3v23.5c0 5 4.1 9.2 9.2 9.2h47.6c5 0 9.2-4.1 9.2-9.2V139.7c0-5-4.1-9.2-9.2-9.2h-47.6c-5 0-9.2 4.1-9.2 9.2v79.6z"/><path class="st9" d="M104 146.8h65.1"/><path class="st8" d="M133.6 139.4H147"/><path class="st9" d="M104 232.7h65.1"/><ellipse class="st7" cx="126.8" cy="139.2" rx="1.5" ry="1.5"/><path class="st8" d="M398.2 103.5V72.9c0-3.8-3.1-6.9-6.9-6.9h-229c-3.8 0-6.9 3.1-6.9 6.9v39c.1 2 .1 6.8.2 10.2M177.6 223.8h220.6v-50.9"/><path class="st8" d="M174.6 252h244.2c3.8 0 6.9-3.1 6.9-6.9V241c0-1.3-.4-2.7-1.3-3.7l-26.2-13.6M425.6 238.4h-248M343.7 154.5H384M343.7 145.6h10.8M361.3 145.6h10.8M379.3 145.6h4.7"/><path class="st9" d="M408.4 163.7h-68.3c-2.8 0-5-2.2-5-5v-41.9c0-2.8 2.2-5 5-5h68.3c2.8 0 5 2.2 5 5v41.9c0 2.7-2.3 5-5 5z"/><path class="st7" d="M355.3 138.5h-11.4c-1 0-1.8-.8-1.8-1.8v-9.3c0-1 .8-1.8 1.8-1.8h11.4c1 0 1.8.8 1.8 1.8v9.3c0 1-.8 1.8-1.8 1.8z"/><path class="st9" d="M72.4 215.7H11.2c-5.1 0-9.2-4.1-9.2-9.2V84.3c0-5.1 4.1-9.2 9.2-9.2h61.2c5.1 0 9.2 4.1 9.2 9.2v122.2c0 5.1-4.1 9.2-9.2 9.2z"/><path class="st8" d="M89.5 129.3v79.8"/><path class="st10" d="M17 93.4h50.8v25.4H17z"/><ellipse class="st7" cx="41.8" cy="196" rx="5.3" ry="5.3"/><ellipse class="st7" cx="61.4" cy="196" rx="5.3" ry="5.3"/><ellipse class="st7" cx="22.3" cy="196" rx="5.3" ry="5.3"/><ellipse class="st7" cx="41.8" cy="173.4" rx="5.3" ry="5.3"/><ellipse class="st7" cx="61.4" cy="173.4" rx="5.3" ry="5.3"/><ellipse class="st7" cx="22.3" cy="173.4" rx="5.3" ry="5.3"/><ellipse class="st7" cx="41.8" cy="150.7" rx="5.3" ry="5.3"/><ellipse class="st7" cx="61.4" cy="150.7" rx="5.3" ry="5.3"/><ellipse class="st7" cx="22.3" cy="150.7" rx="5.3" ry="5.3"/><ellipse class="st7" cx="425.6" cy="138.5" rx="4.1" ry="4.1"/><ellipse class="st7" cx="445.6" cy="138.5" rx="4.1" ry="4.1"/><ellipse class="st7" cx="465.6" cy="138.5" rx="4.1" ry="4.1"/><ellipse class="st9" cx="118.9" cy="49.6" rx="22.6" ry="22.6"/><ellipse class="st11" cx="80.5" cy="13" rx="11" ry="11"/><path class="st8" d="M23.1 216.1v13.2M33 224.1v5.2"/><path class="st9" d="M70.7 215.9v31.4c0 2.8-2.2 5-5 5H17.9c-2.8 0-5-2.2-5-5v-31.6"/></g></mask><linearGradient id="SVGID_2_" gradientUnits="userSpaceOnUse" x1="-61.746" y1="547.679" x2="-61.255" y2="547.143" gradientTransform="matrix(595.28 0 0 -841.89 36845.363 460986.906)"><stop offset="0" stop-color="#2f1553"/><stop offset=".16" stop-color="#2f1553"/><stop offset=".45" stop-color="#391070"/><stop offset=".83" stop-color="#0088c7"/><stop offset="1" stop-color="#00d1c0"/></linearGradient><path class="st12" d="M0 0h470.3v253.9H0z"/></g></svg>